<?xml version="1.0" encoding="UTF-8" standalone="no"?>
<!-- Created with Inkscape (http://www.inkscape.org/) -->

<svg
   width="144.72459mm"
   height="212.42261mm"
   viewBox="0 0 144.72459 212.42261"
   version="1.1"
   id="svg5"
   inkscape:version="1.2.2 (b0a8486541, 2022-12-01)"
   sodipodi:docname="lotus.svg"
   inkscape:export-filename="lotus-stem.png"
   inkscape:export-xdpi="96"
   inkscape:export-ydpi="96"
   xmlns:inkscape="http://www.inkscape.org/namespaces/inkscape"
   xmlns:sodipodi="http://sodipodi.sourceforge.net/DTD/sodipodi-0.dtd"
   xmlns="http://www.w3.org/2000/svg"
   xmlns:svg="http://www.w3.org/2000/svg">
  <sodipodi:namedview
     id="namedview7"
     pagecolor="#ffffff"
     bordercolor="#000000"
     borderopacity="0.25"
     inkscape:showpageshadow="2"
     inkscape:pageopacity="0.0"
     inkscape:pagecheckerboard="0"
     inkscape:deskcolor="#d1d1d1"
     inkscape:document-units="mm"
     showgrid="false"
     inkscape:zoom="0.46994853"
     inkscape:cx="222.36478"
     inkscape:cy="336.20703"
     inkscape:window-width="1366"
     inkscape:window-height="694"
     inkscape:window-x="0"
     inkscape:window-y="0"
     inkscape:window-maximized="1"
     inkscape:current-layer="layer1" />
  <defs
     id="defs2" />
  <g
     inkscape:label="Layer 1"
     inkscape:groupmode="layer"
     id="layer1"
     transform="translate(-45.9964,-61.178018)">
    <path
       style="display:inline;fill:none;stroke:#22c723;stroke-width:4;stroke-linecap:round;stroke-dasharray:none;stroke-opacity:1"
       d="m 110.83043,157.77815 c 0,0 -27.395264,69.85473 9.02693,113.82248"
       id="path236"
       sodipodi:nodetypes="cc" />
    <path
       style="display:inline;fill:#ffd1ec;fill-opacity:1;stroke:#ffc0e6;stroke-width:4;stroke-linecap:round;stroke-dasharray:none;stroke-opacity:1"
       d="m 123.14311,65.96834 c 0,0 -52.944067,87.80866 -11.45213,93.13643 43.37116,5.56906 11.45213,-93.13643 11.45213,-93.13643 z"
       id="path3978"
       sodipodi:nodetypes="csc" />
    <path
       style="display:inline;fill:#ffd1ec;fill-opacity:1;stroke:#ffc0e6;stroke-width:4;stroke-linecap:round;stroke-dasharray:none;stroke-opacity:1"
       d="m 94.944581,77.230116 c 0,0 -28.413493,98.519584 13.043569,92.926914 43.3347,-5.84598 -13.043569,-92.926914 -13.043569,-92.926914 z"
       id="path3978-5"
       sodipodi:nodetypes="csc" />
    <path
       style="display:inline;fill:#ffd1ec;fill-opacity:1;stroke:#ffc0e6;stroke-width:4;stroke-linecap:round;stroke-dasharray:none;stroke-opacity:1"
       d="m 69.197564,86.930557 c 0,0 6.995733,102.296103 44.039836,82.861563 C 151.95926,149.47736 69.197564,86.930557 69.197564,86.930557 Z"
       id="path3978-5-3"
       sodipodi:nodetypes="csc" />
    <path
       style="display:inline;fill:#ffd1ec;fill-opacity:1;stroke:#ffc0e6;stroke-width:4;stroke-linecap:round;stroke-dasharray:none;stroke-opacity:1"
       d="m 49.603274,106.43607 c 0,0 41.561168,93.73422 69.724226,62.8019 29.43858,-32.33328 -69.724226,-62.8019 -69.724226,-62.8019 z"
       id="path3978-5-3-5"
       sodipodi:nodetypes="csc" />
    <path
       style="display:inline;fill:#ffd1ec;fill-opacity:1;stroke:#ffc0e6;stroke-width:4;stroke-linecap:round;stroke-dasharray:none;stroke-opacity:1"
       d="m 147.10084,73.357246 c 0,0 -67.387555,77.281004 -27.45112,89.732824 41.74519,13.01579 27.45112,-89.732824 27.45112,-89.732824 z"
       id="path3978-3"
       sodipodi:nodetypes="csc" />
    <path
       style="display:inline;fill:#ffd1ec;fill-opacity:1;stroke:#ffc0e6;stroke-width:4;stroke-linecap:round;stroke-dasharray:none;stroke-opacity:1"
       d="m 171.92433,94.733911 c 0,0 -93.734235,41.561169 -62.80189,69.724209 32.33327,29.4386 62.80189,-69.724209 62.80189,-69.724209 z"
       id="path3978-3-6"
       sodipodi:nodetypes="csc" />
    <path
       style="display:inline;fill:#ffd1ec;fill-opacity:1;stroke:#ffc0e6;stroke-width:4;stroke-linecap:round;stroke-dasharray:none;stroke-opacity:1"
       d="m 186.14582,133.27433 c 0,0 -101.956798,-10.87409 -89.250132,28.98199 13.282122,41.66121 89.250132,-28.98199 89.250132,-28.98199 z"
       id="path3978-3-6-7"
       sodipodi:nodetypes="csc" />
  </g>
</svg>
